<?xml version="1.0" encoding="UTF-8" standalone="no"?>
<svg
   xmlns:dc="http://purl.org/dc/elements/1.1/"
   xmlns:cc="http://creativecommons.org/ns#"
   xmlns:rdf="http://www.w3.org/1999/02/22-rdf-syntax-ns#"
   xmlns:svg="http://www.w3.org/2000/svg"
   xmlns="http://www.w3.org/2000/svg"
   xmlns:sodipodi="http://sodipodi.sourceforge.net/DTD/sodipodi-0.dtd"
   xmlns:inkscape="http://www.inkscape.org/namespaces/inkscape"
   version="1.1"
   id="svg2"
   xml:space="preserve"
   width="3280"
   height="3280"
   viewBox="0 0 3280 3280"
   sodipodi:docname="background_inca.eps"><metadata
     id="metadata8"><rdf:RDF><cc:Work
         rdf:about=""><dc:format>image/svg+xml</dc:format><dc:type
           rdf:resource="http://purl.org/dc/dcmitype/StillImage" /></cc:Work></rdf:RDF></metadata><defs
     id="defs6" /><sodipodi:namedview
     pagecolor="#ffffff"
     bordercolor="#666666"
     borderopacity="1"
     objecttolerance="10"
     gridtolerance="10"
     guidetolerance="10"
     inkscape:pageopacity="0"
     inkscape:pageshadow="2"
     inkscape:window-width="640"
     inkscape:window-height="480"
     id="namedview4" /><g
     id="g10"
     inkscape:groupmode="layer"
     inkscape:label="ink_ext_XXXXXX"
     transform="matrix(1.3333333,0,0,-1.3333333,0,3280)"><g
       id="g12"
       transform="scale(0.1)"><path
         d="M 0,24600 H 24600 V 0 H 0 v 24600"
         style="fill:#bb0000;fill-opacity:1;fill-rule:evenodd;stroke:none"
         id="path14" /><path
         d="m 11275,12812.5 v 512.5 h 512.5 v 512.5 h 512.5 v -1025 h -512.5 V 12300 h -1025 v 512.5 z m 512.5,4612.5 v 512.5 h 512.5 v -1025 h -512.5 v -1025 h 512.5 v -1025 h -512.5 V 15375 H 11275 v 512.5 h -512.5 v 1025 h 512.5 v 512.5 h 512.5 z m 0,4100 H 11275 v -512.5 h -512.5 v -1025 H 11275 V 19475 h 512.5 v -512.5 h 512.5 v 1025 h -512.5 v 1025 h 512.5 v 1025 h -512.5 V 21525 Z m -512.5,2562.5 h -512.5 v 512.5 h 1025 v -512.5 h 512.5 v -1025 h -512.5 V 23575 H 11275 v 512.5 z m -5637.5,-1025 V 23575 H 5125 v 512.5 h -512.5 v 512.5 h 1024.99 l 0.01,-512.5 h 1025 v 512.5 h 1025 v -512.5 H 7175 V 23575 h -512.5 v -512.5 h -1025 z m 1025,-2050 v -1025 h -1025 l -0.01,1025 H 6662.5 Z m 0,-1537.5 H 7175 v 512.5 h 512.5 v 1025 H 7175 v 512.5 h -512.5 v 512.5 h -1025 V 21525 H 5125 v -512.5 h -512.5 v -1025 H 5125 V 19475 h 512.5 v -512.5 h 1025 v 512.5 z m 0,-2562.5 H 5637.49 l 0.01,-1025 h 1025 v 1025 z m 0,-1537.5 v -512.5 h -1025 V 15375 H 5125 v 512.5 h -512.5 v 1025 H 5125 v 512.5 h 512.5 v 512.5 h 1025 V 17425 H 7175 v -512.5 h 512.5 v -1025 H 7175 V 15375 h -512.5 z m 0,-2050 v 512.5 h -1025 V 13325 H 5125 v -512.5 H 4612.5 V 12300 h 1025 l -0.01,512.5 H 6662.5 V 12300 h 1025 v 512.5 H 7175 v 512.5 h -512.5 z m 512.5,512.5 h 1025 v 1025 H 7175 v -1025 z m 2562.5,-1025 h -1025 V 12300 h 1025 v 512.5 z m 1537.5,2050 h -1025 v -1025 h 1025 v 1025 z m -1537.5,2050 h -1025 v -1025 h 1025 v 1025 z m -1537.5,1025 v 1025 H 7175 v -1025 h 1025 z m 3075,1025 h -1025 v -1025 h 1025 v 1025 z m -1537.5,2050 h -1025 v -1025 h 1025 v 1025 z m 512.5,2050 v -1025 h 1025 v 1025 h -1025 z m -2050,0 H 7175 v -1025 h 1025 v 1025 z m 512.5,1537.5 v -512.5 h 1025 v 512.5 h -1025 z m -6150,-512.5 h 1025 v 512.5 h -1025 v -512.5 z m 1537.5,-1025 v -1025 h 1025 v 1025 H 4100 Z m -3075,-1025 -0.01,1025 H 2050 l -0.01,-1025 H 1025 Z m 1537.5,-2050 h 1025 v 1025 h -1025 v -1025 z m 1537.5,-1025 v -1025 h 1025 v 1025 H 4100 Z m -3075,-1025 h 1024.99 l 0.01,1025 H 1024.99 l 0.01,-1025 z m 1537.5,-2050 h 1025 v 1025 h -1025 v -1025 z m 1537.5,-2050 h 1025 v 1025 H 4100 v -1025 z m -512.5,-1025 h -1025 V 12300 h 1025 v 512.5 z m -2562.5,1025 -0.01,1025 H 2050 l -0.01,-1025 H 1025 Z m 0,-512.5 H 512.5 v 512.5 H 0 v -1025 H 512.5 V 12300 h 1025 v 512.5 H 1025 v 512.5 z m 512.5,3587.5 H 1025 V 17425 H 512.5 v 512.5 H 0 v -1025 h 512.5 v -1025 H 0 v -1025 H 512.5 V 15375 H 1025 v 512.5 h 512.5 v 1025 z m 0,4100 H 1025 V 21525 H 512.5 v 512.5 H 0 v -1025 h 512.5 v -1025 H 0 v -1025 H 512.5 V 19475 H 1025 v 512.5 h 512.5 v 1025 z M 512.5,23575 H 1025 v 512.5 h 512.5 v 512.5 h -1025 v -512.5 H 0 v -1025 h 512.5 v 512.5 0"
         style="fill:#ffffff;fill-opacity:1;fill-rule:evenodd;stroke:none"
         id="path16" /><path
         d="m 23575,12812.5 v 512.5 h 512.5 v 512.5 h 512.5 v -1025 h -512.5 V 12300 h -1025 v 512.5 z m 512.5,4612.5 v 512.5 h 512.5 v -1025 h -512.5 v -1025 h 512.5 v -1025 h -512.5 V 15375 H 23575 v 512.5 h -512.5 v 1025 h 512.5 v 512.5 h 512.5 z m 0,4100 H 23575 v -512.5 h -512.5 v -1025 H 23575 V 19475 h 512.5 v -512.5 h 512.5 v 1025 h -512.5 v 1025 h 512.5 v 1025 h -512.5 V 21525 Z m -512.5,2562.5 h -512.5 v 512.5 h 1025 v -512.5 h 512.5 v -1025 h -512.5 V 23575 H 23575 v 512.5 z m -5637.5,-1025 V 23575 H 17425 v 512.5 h -512.5 v 512.5 h 1025 v -512.5 h 1025 v 512.5 h 1025 v -512.5 H 19475 V 23575 h -512.5 v -512.5 h -1025 z m 1025,-2050 v -1025 h -1025 v 1025 h 1025 z m 0,-1537.5 h 512.5 v 512.5 h 512.5 v 1025 H 19475 v 512.5 h -512.5 v 512.5 h -1025 V 21525 H 17425 v -512.5 h -512.5 v -1025 H 17425 V 19475 h 512.5 v -512.5 h 1025 v 512.5 z m 0,-2562.5 h -1025 v -1025 h 1025 v 1025 z m 0,-1537.5 v -512.5 h -1025 V 15375 H 17425 v 512.5 h -512.5 v 1025 h 512.5 v 512.5 h 512.5 v 512.5 h 1025 V 17425 h 512.5 v -512.5 h 512.5 v -1025 H 19475 V 15375 h -512.5 z m 0,-2050 v 512.5 h -1025 V 13325 H 17425 v -512.5 h -512.5 V 12300 h 1025 v 512.5 h 1025 V 12300 h 1025 v 512.5 H 19475 v 512.5 h -512.5 z m 512.5,512.5 h 1025 v 1025 h -1025 v -1025 z m 2562.5,-1025 h -1025 V 12300 h 1025 v 512.5 z m 1537.5,2050 h -1025 v -1025 h 1025 v 1025 z m -1537.5,2050 h -1025 v -1025 h 1025 v 1025 z m -1537.5,1025 v 1025 h -1025 v -1025 h 1025 z m 3075,1025 h -1025 v -1025 h 1025 v 1025 z m -1537.5,2050 h -1025 v -1025 h 1025 v 1025 z m 512.5,2050 v -1025 h 1025 v 1025 h -1025 z m -2050,0 h -1025 v -1025 h 1025 v 1025 z m 512.5,1537.5 v -512.5 h 1025 v 512.5 h -1025 z m -6150,-512.5 h 1025 v 512.5 h -1025 v -512.5 z m 1537.5,-1025 v -1025 h 1025 v 1025 h -1025 z m -3075,-1025 v 1025 h 1025 v -1025 h -1025 z m 1537.5,-2050 h 1025 v 1025 h -1025 v -1025 z m 1537.5,-1025 v -1025 h 1025 v 1025 h -1025 z m -3075,-1025 h 1025 v 1025 h -1025 v -1025 z m 1537.5,-2050 h 1025 v 1025 h -1025 v -1025 z m 1537.5,-2050 h 1025 v 1025 h -1025 v -1025 z m -512.5,-1025 h -1025 V 12300 h 1025 v 512.5 z m -2562.5,1025 v 1025 h 1025 v -1025 h -1025 z m 0,-512.5 h -512.5 v 512.5 H 12300 v -1025 h 512.5 V 12300 h 1025 v 512.5 H 13325 v 512.5 z m 512.5,3587.5 H 13325 v 512.5 h -512.5 v 512.5 H 12300 v -1025 h 512.5 v -1025 H 12300 v -1025 h 512.5 v 512.5 h 512.5 v 512.5 h 512.5 v 1025 z m 0,4100 H 13325 v 512.5 h -512.5 v 512.5 H 12300 v -1025 h 512.5 v -1025 H 12300 v -1025 h 512.5 v 512.5 h 512.5 v 512.5 h 512.5 v 1025 z m -1025,2562.5 h 512.5 v 512.5 h 512.5 v 512.5 h -1025 v -512.5 H 12300 v -1025 h 512.5 v 512.5 0"
         style="fill:#ffffff;fill-opacity:1;fill-rule:evenodd;stroke:none"
         id="path18" /><path
         d="M 11275,512.5 V 1025 h 512.5 v 512.5 h 512.5 v -1025 h -512.5 V 0 h -1025 v 512.5 z m 512.5,4612.5 v 512.5 h 512.5 v -1025 h -512.5 v -1025 h 512.5 v -1025 h -512.5 V 3075 H 11275 v 512.5 h -512.5 v 1025 H 11275 V 5125 h 512.5 z m 0,4100 H 11275 v -512.5 h -512.5 v -1025 H 11275 V 7175 h 512.5 v -512.5 h 512.5 v 1025 h -512.5 v 1025 h 512.5 v 1025 h -512.5 V 9225 Z m -512.5,2562.5 h -512.5 v 512.5 h 1025 v -512.5 h 512.5 v -1025 h -512.5 V 11275 H 11275 v 512.5 z m -5637.5,-1025 V 11275 H 5125 v 512.5 h -512.5 v 512.5 h 1024.99 l 0.01,-512.5 h 1025 v 512.5 h 1025 v -512.5 H 7175 V 11275 h -512.5 v -512.5 h -1025 z m 1025,-2050 v -1025 h -1025 l -0.01,1025 H 6662.5 Z m 0,-1537.5 H 7175 v 512.5 h 512.5 v 1025 H 7175 V 9225 h -512.5 v 512.5 h -1025 V 9225 H 5125 v -512.5 h -512.5 v -1025 H 5125 V 7175 h 512.5 v -512.5 h 1025 V 7175 Z m 0,-2562.5 H 5637.49 l 0.01,-1025 h 1025 v 1025 z m 0,-1537.5 v -512.5 h -1025 V 3075 H 5125 v 512.5 h -512.5 v 1025 H 5125 V 5125 h 512.5 v 512.5 h 1025 V 5125 H 7175 v -512.5 h 512.5 v -1025 H 7175 V 3075 h -512.5 z m 0,-2050 v 512.5 h -1025 V 1025 H 5125 V 512.5 H 4612.5 V 0 h 1025 l -0.01,512.5 H 6662.5 V 0 h 1025 V 512.5 H 7175 V 1025 h -512.5 z m 512.5,512.5 h 1025 v 1025 H 7175 v -1025 z m 2562.5,-1025 h -1025 V 0 h 1025 v 512.5 z m 1537.5,2050 h -1025 v -1025 h 1025 v 1025 z m -1537.5,2050 h -1025 v -1025 h 1025 v 1025 z M 8200,5637.5 v 1025 H 7175 v -1025 h 1025 z m 3075,1025 h -1025 v -1025 h 1025 v 1025 z m -1537.5,2050 h -1025 v -1025 h 1025 v 1025 z m 512.5,2050 v -1025 h 1025 v 1025 h -1025 z m -2050,0 H 7175 v -1025 h 1025 v 1025 z m 512.5,1537.5 v -512.5 h 1025 v 512.5 h -1025 z m -6150,-512.5 h 1025 v 512.5 h -1025 v -512.5 z m 1537.5,-1025 v -1025 h 1025 v 1025 H 4100 Z m -3075,-1025 -0.01,1025 H 2050 l -0.01,-1025 H 1025 Z m 1537.5,-2050 h 1025 v 1025 h -1025 v -1025 z M 4100,6662.5 v -1025 h 1025 v 1025 H 4100 Z m -3075,-1025 h 1024.99 l 0.01,1025 H 1024.99 l 0.01,-1025 z m 1537.5,-2050 h 1025 v 1025 h -1025 v -1025 z M 4100,1537.5 h 1025 v 1025 H 4100 v -1025 z m -512.5,-1025 h -1025 V 0 h 1025 v 512.5 z m -2562.5,1025 -0.01,1025 H 2050 l -0.01,-1025 H 1025 Z m 0,-512.5 H 512.5 v 512.5 H 0 V 512.5 H 512.5 V 0 h 1025 V 512.5 H 1025 V 1025 Z m 512.5,3587.5 H 1025 V 5125 H 512.5 v 512.5 H 0 v -1025 h 512.5 v -1025 H 0 v -1025 H 512.5 V 3075 H 1025 v 512.5 h 512.5 v 1025 z m 0,4100 H 1025 V 9225 H 512.5 v 512.5 H 0 v -1025 h 512.5 v -1025 H 0 v -1025 H 512.5 V 7175 H 1025 v 512.5 h 512.5 v 1025 z M 512.5,11275 H 1025 v 512.5 h 512.5 v 512.5 h -1025 v -512.5 H 0 v -1025 h 512.5 v 512.5 0"
         style="fill:#ffffff;fill-opacity:1;fill-rule:evenodd;stroke:none"
         id="path20" /><path
         d="M 23575,512.5 V 1025 h 512.5 v 512.5 h 512.5 v -1025 h -512.5 V 0 h -1025 v 512.5 z m 512.5,4612.5 v 512.5 h 512.5 v -1025 h -512.5 v -1025 h 512.5 v -1025 h -512.5 V 3075 H 23575 v 512.5 h -512.5 v 1025 H 23575 V 5125 h 512.5 z m 0,4100 H 23575 v -512.5 h -512.5 v -1025 H 23575 V 7175 h 512.5 v -512.5 h 512.5 v 1025 h -512.5 v 1025 h 512.5 v 1025 h -512.5 V 9225 Z m -512.5,2562.5 h -512.5 v 512.5 h 1025 v -512.5 h 512.5 v -1025 h -512.5 V 11275 H 23575 v 512.5 z m -5637.5,-1025 V 11275 H 17425 v 512.5 h -512.5 v 512.5 h 1025 v -512.5 h 1025 v 512.5 h 1025 v -512.5 H 19475 V 11275 h -512.5 v -512.5 h -1025 z m 1025,-2050 v -1025 h -1025 v 1025 h 1025 z m 0,-1537.5 h 512.5 v 512.5 h 512.5 v 1025 H 19475 V 9225 h -512.5 v 512.5 h -1025 V 9225 H 17425 v -512.5 h -512.5 v -1025 H 17425 V 7175 h 512.5 v -512.5 h 1025 V 7175 Z m 0,-2562.5 h -1025 v -1025 h 1025 v 1025 z m 0,-1537.5 v -512.5 h -1025 V 3075 H 17425 v 512.5 h -512.5 v 1025 H 17425 V 5125 h 512.5 v 512.5 h 1025 V 5125 h 512.5 v -512.5 h 512.5 v -1025 H 19475 V 3075 h -512.5 z m 0,-2050 v 512.5 h -1025 V 1025 H 17425 V 512.5 h -512.5 V 0 h 1025 v 512.5 h 1025 V 0 h 1025 V 512.5 H 19475 V 1025 h -512.5 z m 512.5,512.5 h 1025 v 1025 h -1025 v -1025 z m 2562.5,-1025 h -1025 V 0 h 1025 v 512.5 z m 1537.5,2050 h -1025 v -1025 h 1025 v 1025 z m -1537.5,2050 h -1025 v -1025 h 1025 v 1025 z m -1537.5,1025 v 1025 h -1025 v -1025 h 1025 z m 3075,1025 h -1025 v -1025 h 1025 v 1025 z m -1537.5,2050 h -1025 v -1025 h 1025 v 1025 z m 512.5,2050 v -1025 h 1025 v 1025 h -1025 z m -2050,0 h -1025 v -1025 h 1025 v 1025 z m 512.5,1537.5 v -512.5 h 1025 v 512.5 h -1025 z m -6150,-512.5 h 1025 v 512.5 h -1025 v -512.5 z m 1537.5,-1025 v -1025 h 1025 v 1025 h -1025 z m -3075,-1025 v 1025 h 1025 v -1025 h -1025 z m 1537.5,-2050 h 1025 v 1025 h -1025 v -1025 z m 1537.5,-1025 v -1025 h 1025 v 1025 h -1025 z m -3075,-1025 h 1025 v 1025 h -1025 v -1025 z m 1537.5,-2050 h 1025 v 1025 h -1025 v -1025 z m 1537.5,-2050 h 1025 v 1025 h -1025 v -1025 z m -512.5,-1025 h -1025 V 0 h 1025 v 512.5 z m -2562.5,1025 v 1025 h 1025 v -1025 h -1025 z m 0,-512.5 h -512.5 v 512.5 H 12300 v -1025 h 512.5 V 0 h 1025 V 512.5 H 13325 V 1025 Z m 512.5,3587.5 H 13325 V 5125 h -512.5 v 512.5 H 12300 v -1025 h 512.5 v -1025 H 12300 v -1025 h 512.5 V 3075 h 512.5 v 512.5 h 512.5 v 1025 z m 0,4100 H 13325 V 9225 h -512.5 v 512.5 H 12300 v -1025 h 512.5 v -1025 H 12300 v -1025 h 512.5 V 7175 h 512.5 v 512.5 h 512.5 v 1025 z m -1025,2562.5 h 512.5 v 512.5 h 512.5 v 512.5 h -1025 v -512.5 H 12300 v -1025 h 512.5 v 512.5 0"
         style="fill:#ffffff;fill-opacity:1;fill-rule:evenodd;stroke:none"
         id="path22" /></g></g></svg>
